<mxfile host="app.diagrams.net" modified="2023-02-19T14:48:22.118Z" agent="5.0 (Windows NT 10.0; Win64; x64) AppleWebKit/537.36 (KHTML, like Gecko) Chrome/110.0.0.0 Safari/537.36" etag="Uhb3QzKhMhiSkZ_dBlyS" version="20.8.20" type="github">
  <diagram name="Страница 1" id="9b1UUaNlVaYaMfwVTrNl">
    <mxGraphModel dx="1500" dy="1953" grid="1" gridSize="10" guides="1" tooltips="1" connect="1" arrows="1" fold="1" page="1" pageScale="1" pageWidth="827" pageHeight="1169" math="0" shadow="0">
      <root>
        <mxCell id="0" />
        <mxCell id="1" parent="0" />
        <mxCell id="UY6JV69SFo73Zw9_0_lw-2" value="Person" style="swimlane;fontStyle=1;childLayout=stackLayout;horizontal=1;startSize=30;horizontalStack=0;resizeParent=1;resizeParentMax=0;resizeLast=0;collapsible=1;marginBottom=0;whiteSpace=wrap;html=1;fontFamily=Georgia;align=left;swimlaneFillColor=default;fillColor=#FF3399;" vertex="1" parent="1">
          <mxGeometry x="210" y="-50" width="140" height="210" as="geometry" />
        </mxCell>
        <mxCell id="UY6JV69SFo73Zw9_0_lw-3" value="last name" style="text;strokeColor=none;fillColor=none;align=left;verticalAlign=middle;spacingLeft=4;spacingRight=4;overflow=hidden;points=[[0,0.5],[1,0.5]];portConstraint=eastwest;rotatable=0;whiteSpace=wrap;html=1;" vertex="1" parent="UY6JV69SFo73Zw9_0_lw-2">
          <mxGeometry y="30" width="140" height="30" as="geometry" />
        </mxCell>
        <mxCell id="UY6JV69SFo73Zw9_0_lw-4" value="first name" style="text;strokeColor=none;fillColor=none;align=left;verticalAlign=middle;spacingLeft=4;spacingRight=4;overflow=hidden;points=[[0,0.5],[1,0.5]];portConstraint=eastwest;rotatable=0;whiteSpace=wrap;html=1;" vertex="1" parent="UY6JV69SFo73Zw9_0_lw-2">
          <mxGeometry y="60" width="140" height="30" as="geometry" />
        </mxCell>
        <mxCell id="UY6JV69SFo73Zw9_0_lw-5" value="address" style="text;strokeColor=none;fillColor=none;align=left;verticalAlign=middle;spacingLeft=4;spacingRight=4;overflow=hidden;points=[[0,0.5],[1,0.5]];portConstraint=eastwest;rotatable=0;whiteSpace=wrap;html=1;" vertex="1" parent="UY6JV69SFo73Zw9_0_lw-2">
          <mxGeometry y="90" width="140" height="30" as="geometry" />
        </mxCell>
        <mxCell id="UY6JV69SFo73Zw9_0_lw-9" value="phone" style="text;strokeColor=none;fillColor=none;align=left;verticalAlign=middle;spacingLeft=4;spacingRight=4;overflow=hidden;points=[[0,0.5],[1,0.5]];portConstraint=eastwest;rotatable=0;whiteSpace=wrap;html=1;" vertex="1" parent="UY6JV69SFo73Zw9_0_lw-2">
          <mxGeometry y="120" width="140" height="30" as="geometry" />
        </mxCell>
        <mxCell id="UY6JV69SFo73Zw9_0_lw-10" value="birthday" style="text;strokeColor=none;fillColor=none;align=left;verticalAlign=middle;spacingLeft=4;spacingRight=4;overflow=hidden;points=[[0,0.5],[1,0.5]];portConstraint=eastwest;rotatable=0;whiteSpace=wrap;html=1;" vertex="1" parent="UY6JV69SFo73Zw9_0_lw-2">
          <mxGeometry y="150" width="140" height="30" as="geometry" />
        </mxCell>
        <mxCell id="UY6JV69SFo73Zw9_0_lw-11" value="age" style="text;strokeColor=none;fillColor=none;align=left;verticalAlign=middle;spacingLeft=4;spacingRight=4;overflow=hidden;points=[[0,0.5],[1,0.5]];portConstraint=eastwest;rotatable=0;whiteSpace=wrap;html=1;" vertex="1" parent="UY6JV69SFo73Zw9_0_lw-2">
          <mxGeometry y="180" width="140" height="30" as="geometry" />
        </mxCell>
        <mxCell id="UY6JV69SFo73Zw9_0_lw-12" value="Doctor" style="swimlane;fontStyle=0;childLayout=stackLayout;horizontal=1;startSize=30;horizontalStack=0;resizeParent=1;resizeParentMax=0;resizeLast=0;collapsible=1;marginBottom=0;whiteSpace=wrap;html=1;" vertex="1" parent="1">
          <mxGeometry x="100" y="300" width="140" height="60" as="geometry" />
        </mxCell>
        <mxCell id="UY6JV69SFo73Zw9_0_lw-13" value="speciality" style="text;strokeColor=none;fillColor=#FF3399;align=left;verticalAlign=middle;spacingLeft=4;spacingRight=4;overflow=hidden;points=[[0,0.5],[1,0.5]];portConstraint=eastwest;rotatable=0;whiteSpace=wrap;html=1;fontStyle=1;fontFamily=Georgia;swimlaneFillColor=default;" vertex="1" parent="UY6JV69SFo73Zw9_0_lw-12">
          <mxGeometry y="30" width="140" height="30" as="geometry" />
        </mxCell>
        <mxCell id="UY6JV69SFo73Zw9_0_lw-16" value="Patient" style="swimlane;fontStyle=1;childLayout=stackLayout;horizontal=1;startSize=30;horizontalStack=0;resizeParent=1;resizeParentMax=0;resizeLast=0;collapsible=1;marginBottom=0;whiteSpace=wrap;html=1;fontFamily=Georgia;align=left;swimlaneFillColor=default;fillColor=#FF3399;" vertex="1" parent="1">
          <mxGeometry x="330" y="300" width="140" height="90" as="geometry" />
        </mxCell>
        <mxCell id="UY6JV69SFo73Zw9_0_lw-17" value="complete info file()" style="text;strokeColor=none;fillColor=none;align=left;verticalAlign=middle;spacingLeft=4;spacingRight=4;overflow=hidden;points=[[0,0.5],[1,0.5]];portConstraint=eastwest;rotatable=0;whiteSpace=wrap;html=1;" vertex="1" parent="UY6JV69SFo73Zw9_0_lw-16">
          <mxGeometry y="30" width="140" height="30" as="geometry" />
        </mxCell>
        <mxCell id="UY6JV69SFo73Zw9_0_lw-18" value="submit insurance claim()" style="text;strokeColor=none;fillColor=none;align=left;verticalAlign=middle;spacingLeft=4;spacingRight=4;overflow=hidden;points=[[0,0.5],[1,0.5]];portConstraint=eastwest;rotatable=0;whiteSpace=wrap;html=1;" vertex="1" parent="UY6JV69SFo73Zw9_0_lw-16">
          <mxGeometry y="60" width="140" height="30" as="geometry" />
        </mxCell>
        <mxCell id="UY6JV69SFo73Zw9_0_lw-20" value="Information file" style="swimlane;fontStyle=1;childLayout=stackLayout;horizontal=1;startSize=30;horizontalStack=0;resizeParent=1;resizeParentMax=0;resizeLast=0;collapsible=1;marginBottom=0;whiteSpace=wrap;html=1;fontFamily=Georgia;align=left;swimlaneFillColor=default;fillColor=#FF3399;" vertex="1" parent="1">
          <mxGeometry x="660" y="240" width="140" height="150" as="geometry" />
        </mxCell>
        <mxCell id="UY6JV69SFo73Zw9_0_lw-21" value="name" style="text;strokeColor=none;fillColor=none;align=left;verticalAlign=middle;spacingLeft=4;spacingRight=4;overflow=hidden;points=[[0,0.5],[1,0.5]];portConstraint=eastwest;rotatable=0;whiteSpace=wrap;html=1;" vertex="1" parent="UY6JV69SFo73Zw9_0_lw-20">
          <mxGeometry y="30" width="140" height="30" as="geometry" />
        </mxCell>
        <mxCell id="UY6JV69SFo73Zw9_0_lw-22" value="address" style="text;strokeColor=none;fillColor=none;align=left;verticalAlign=middle;spacingLeft=4;spacingRight=4;overflow=hidden;points=[[0,0.5],[1,0.5]];portConstraint=eastwest;rotatable=0;whiteSpace=wrap;html=1;" vertex="1" parent="UY6JV69SFo73Zw9_0_lw-20">
          <mxGeometry y="60" width="140" height="30" as="geometry" />
        </mxCell>
        <mxCell id="UY6JV69SFo73Zw9_0_lw-23" value="phone" style="text;strokeColor=none;fillColor=none;align=left;verticalAlign=middle;spacingLeft=4;spacingRight=4;overflow=hidden;points=[[0,0.5],[1,0.5]];portConstraint=eastwest;rotatable=0;whiteSpace=wrap;html=1;" vertex="1" parent="UY6JV69SFo73Zw9_0_lw-20">
          <mxGeometry y="90" width="140" height="30" as="geometry" />
        </mxCell>
        <mxCell id="UY6JV69SFo73Zw9_0_lw-24" value="insurance carrier" style="text;strokeColor=none;fillColor=none;align=left;verticalAlign=middle;spacingLeft=4;spacingRight=4;overflow=hidden;points=[[0,0.5],[1,0.5]];portConstraint=eastwest;rotatable=0;whiteSpace=wrap;html=1;" vertex="1" parent="UY6JV69SFo73Zw9_0_lw-20">
          <mxGeometry y="120" width="140" height="30" as="geometry" />
        </mxCell>
        <mxCell id="UY6JV69SFo73Zw9_0_lw-25" value="Insurance Carrier" style="swimlane;fontStyle=1;childLayout=stackLayout;horizontal=1;startSize=30;horizontalStack=0;resizeParent=1;resizeParentMax=0;resizeLast=0;collapsible=1;marginBottom=0;whiteSpace=wrap;html=1;fontFamily=Georgia;align=left;swimlaneFillColor=default;fillColor=#FF3399;" vertex="1" parent="1">
          <mxGeometry x="200" y="470" width="140" height="60" as="geometry" />
        </mxCell>
        <mxCell id="UY6JV69SFo73Zw9_0_lw-26" value="category" style="text;strokeColor=none;fillColor=none;align=left;verticalAlign=middle;spacingLeft=4;spacingRight=4;overflow=hidden;points=[[0,0.5],[1,0.5]];portConstraint=eastwest;rotatable=0;whiteSpace=wrap;html=1;" vertex="1" parent="UY6JV69SFo73Zw9_0_lw-25">
          <mxGeometry y="30" width="140" height="30" as="geometry" />
        </mxCell>
        <mxCell id="UY6JV69SFo73Zw9_0_lw-29" value="Insurance Claim" style="swimlane;fontStyle=1;childLayout=stackLayout;horizontal=1;startSize=30;horizontalStack=0;resizeParent=1;resizeParentMax=0;resizeLast=0;collapsible=1;marginBottom=0;whiteSpace=wrap;html=1;fontFamily=Georgia;align=left;swimlaneFillColor=default;fillColor=#FF3399;" vertex="1" parent="1">
          <mxGeometry x="520" y="470" width="140" height="120" as="geometry" />
        </mxCell>
        <mxCell id="UY6JV69SFo73Zw9_0_lw-30" value="date" style="text;strokeColor=none;fillColor=none;align=left;verticalAlign=middle;spacingLeft=4;spacingRight=4;overflow=hidden;points=[[0,0.5],[1,0.5]];portConstraint=eastwest;rotatable=0;whiteSpace=wrap;html=1;" vertex="1" parent="UY6JV69SFo73Zw9_0_lw-29">
          <mxGeometry y="30" width="140" height="30" as="geometry" />
        </mxCell>
        <mxCell id="UY6JV69SFo73Zw9_0_lw-31" value="purpose" style="text;strokeColor=none;fillColor=none;align=left;verticalAlign=middle;spacingLeft=4;spacingRight=4;overflow=hidden;points=[[0,0.5],[1,0.5]];portConstraint=eastwest;rotatable=0;whiteSpace=wrap;html=1;" vertex="1" parent="UY6JV69SFo73Zw9_0_lw-29">
          <mxGeometry y="60" width="140" height="30" as="geometry" />
        </mxCell>
        <mxCell id="UY6JV69SFo73Zw9_0_lw-32" value="cost" style="text;strokeColor=none;fillColor=none;align=left;verticalAlign=middle;spacingLeft=4;spacingRight=4;overflow=hidden;points=[[0,0.5],[1,0.5]];portConstraint=eastwest;rotatable=0;whiteSpace=wrap;html=1;" vertex="1" parent="UY6JV69SFo73Zw9_0_lw-29">
          <mxGeometry y="90" width="140" height="30" as="geometry" />
        </mxCell>
        <mxCell id="UY6JV69SFo73Zw9_0_lw-35" value="" style="endArrow=none;html=1;rounded=0;exitX=0.442;exitY=-0.006;exitDx=0;exitDy=0;exitPerimeter=0;entryX=0.5;entryY=0;entryDx=0;entryDy=0;" edge="1" parent="1" source="UY6JV69SFo73Zw9_0_lw-12" target="UY6JV69SFo73Zw9_0_lw-16">
          <mxGeometry width="50" height="50" relative="1" as="geometry">
            <mxPoint x="390" y="110" as="sourcePoint" />
            <mxPoint x="440" y="60" as="targetPoint" />
            <Array as="points">
              <mxPoint x="162" y="220" />
              <mxPoint x="270" y="220" />
              <mxPoint x="400" y="220" />
            </Array>
          </mxGeometry>
        </mxCell>
        <mxCell id="UY6JV69SFo73Zw9_0_lw-37" value="" style="endArrow=classic;html=1;rounded=0;" edge="1" parent="1" target="UY6JV69SFo73Zw9_0_lw-11">
          <mxGeometry width="50" height="50" relative="1" as="geometry">
            <mxPoint x="280" y="220" as="sourcePoint" />
            <mxPoint x="440" y="60" as="targetPoint" />
          </mxGeometry>
        </mxCell>
        <mxCell id="UY6JV69SFo73Zw9_0_lw-39" value="" style="endArrow=none;html=1;rounded=0;exitX=0;exitY=0.5;exitDx=0;exitDy=0;" edge="1" parent="1" source="UY6JV69SFo73Zw9_0_lw-17" target="UY6JV69SFo73Zw9_0_lw-13">
          <mxGeometry width="50" height="50" relative="1" as="geometry">
            <mxPoint x="390" y="220" as="sourcePoint" />
            <mxPoint x="440" y="170" as="targetPoint" />
          </mxGeometry>
        </mxCell>
        <mxCell id="UY6JV69SFo73Zw9_0_lw-40" value="" style="endArrow=none;html=1;rounded=0;entryX=0.423;entryY=1.004;entryDx=0;entryDy=0;entryPerimeter=0;exitX=0;exitY=0.333;exitDx=0;exitDy=0;exitPerimeter=0;" edge="1" parent="1" source="UY6JV69SFo73Zw9_0_lw-26" target="UY6JV69SFo73Zw9_0_lw-13">
          <mxGeometry width="50" height="50" relative="1" as="geometry">
            <mxPoint x="390" y="330" as="sourcePoint" />
            <mxPoint x="440" y="280" as="targetPoint" />
            <Array as="points">
              <mxPoint x="160" y="510" />
              <mxPoint x="160" y="430" />
            </Array>
          </mxGeometry>
        </mxCell>
        <mxCell id="UY6JV69SFo73Zw9_0_lw-41" value="" style="endArrow=none;html=1;rounded=0;exitX=1;exitY=0.5;exitDx=0;exitDy=0;entryX=0;entryY=0.5;entryDx=0;entryDy=0;" edge="1" parent="1" source="UY6JV69SFo73Zw9_0_lw-26" target="UY6JV69SFo73Zw9_0_lw-30">
          <mxGeometry width="50" height="50" relative="1" as="geometry">
            <mxPoint x="390" y="330" as="sourcePoint" />
            <mxPoint x="440" y="280" as="targetPoint" />
          </mxGeometry>
        </mxCell>
        <mxCell id="UY6JV69SFo73Zw9_0_lw-42" value="" style="endArrow=none;html=1;rounded=0;entryX=1;entryY=0.5;entryDx=0;entryDy=0;exitX=0.5;exitY=0;exitDx=0;exitDy=0;" edge="1" parent="1" source="UY6JV69SFo73Zw9_0_lw-29" target="UY6JV69SFo73Zw9_0_lw-18">
          <mxGeometry width="50" height="50" relative="1" as="geometry">
            <mxPoint x="390" y="330" as="sourcePoint" />
            <mxPoint x="440" y="280" as="targetPoint" />
            <Array as="points">
              <mxPoint x="590" y="375" />
            </Array>
          </mxGeometry>
        </mxCell>
        <mxCell id="UY6JV69SFo73Zw9_0_lw-43" value="" style="endArrow=none;html=1;rounded=0;entryX=0;entryY=0.5;entryDx=0;entryDy=0;" edge="1" parent="1" target="UY6JV69SFo73Zw9_0_lw-23">
          <mxGeometry width="50" height="50" relative="1" as="geometry">
            <mxPoint x="470" y="345" as="sourcePoint" />
            <mxPoint x="440" y="280" as="targetPoint" />
          </mxGeometry>
        </mxCell>
        <mxCell id="UY6JV69SFo73Zw9_0_lw-44" value="" style="endArrow=none;html=1;rounded=0;exitX=0.5;exitY=0;exitDx=0;exitDy=0;entryX=-0.026;entryY=0.211;entryDx=0;entryDy=0;entryPerimeter=0;" edge="1" parent="1" source="UY6JV69SFo73Zw9_0_lw-25" target="UY6JV69SFo73Zw9_0_lw-18">
          <mxGeometry width="50" height="50" relative="1" as="geometry">
            <mxPoint x="390" y="330" as="sourcePoint" />
            <mxPoint x="440" y="280" as="targetPoint" />
            <Array as="points">
              <mxPoint x="270" y="366" />
            </Array>
          </mxGeometry>
        </mxCell>
      </root>
    </mxGraphModel>
  </diagram>
</mxfile>
